<svg xmlns="http://www.w3.org/2000/svg" width="32" height="32" viewBox="0 0 32 32">
  <g id="cut_in" transform="translate(-66 -65)">
    <rect id="長方形_2" data-name="長方形 2" width="32" height="32" transform="translate(66 65)" fill="none"/>
    <g id="パス_7" data-name="パス 7" transform="matrix(0.978, 0.208, -0.208, 0.978, 72.372, 66.174)" fill="#232367">
      <path d="M 9.333868980407715 24.31617164611816 L 8.171139717102051 20.50945091247559 L 8.068940162658691 20.17482948303223 L 7.728050231933594 20.25362014770508 L 3.849973440170288 21.1500358581543 L 4.746379852294922 17.27194976806641 L 4.825170040130615 16.93106079101562 L 4.49055004119873 16.82885932922363 L 0.6838286519050598 15.66613960266113 L 3.399189949035645 12.75582027435303 L 3.637880086898804 12.5 L 3.399189949035645 12.24417972564697 L 0.6838286519050598 9.333868980407715 L 4.49055004119873 8.171139717102051 L 4.825170040130615 8.068940162658691 L 4.746379852294922 7.728050231933594 L 3.84996485710144 3.849973440170288 L 7.728050231933594 4.746379852294922 L 8.068940162658691 4.825170040130615 L 8.171139717102051 4.49055004119873 L 9.333860397338867 0.6838286519050598 L 12.24417972564697 3.399189949035645 L 12.5 3.637870073318481 L 12.75582027435303 3.399189949035645 L 15.66613960266113 0.6838286519050598 L 16.82885932922363 4.49055004119873 L 16.93106079101562 4.825170040130615 L 17.27194976806641 4.746379852294922 L 21.1500358581543 3.84996485710144 L 20.25362014770508 7.728050231933594 L 20.17482948303223 8.068940162658691 L 20.50945091247559 8.171139717102051 L 24.31617164611816 9.333860397338867 L 21.60080909729004 12.24417972564697 L 21.36211967468262 12.5 L 21.60080909729004 12.75582027435303 L 24.31617164611816 15.66613101959229 L 20.50945091247559 16.82885932922363 L 20.17482948303223 16.93106079101562 L 20.25362014770508 17.27194976806641 L 21.1500358581543 21.1500358581543 L 17.27194976806641 20.25362014770508 L 16.93106079101562 20.17482948303223 L 16.82885932922363 20.50945091247559 L 15.66613960266113 24.31617164611816 L 12.75582027435303 21.60080909729004 L 12.5 21.36211967468262 L 12.24417972564697 21.60080909729004 L 9.333868980407715 24.31617164611816 Z" stroke="none"/>
      <path d="M 9.51710033416748 1.367666244506836 L 8.325380325317383 5.269329071044922 L 4.350559234619141 4.350566864013672 L 5.269340515136719 8.325370788574219 L 1.367673873901367 9.517105102539062 L 4.150749206542969 12.5 L 1.367666244506836 15.48289966583252 L 5.269329071044922 16.67461967468262 L 4.350566864013672 20.64944076538086 L 8.325370788574219 19.73065948486328 L 9.517105102539062 23.63232612609863 L 12.5 20.84925079345703 L 15.48289966583252 23.63233375549316 L 16.67461967468262 19.73065948486328 L 20.64943313598633 20.64944076538086 L 19.73067092895508 16.67462921142578 L 23.63232612609863 15.48289489746094 L 20.84925079345703 12.5 L 23.63233375549316 9.51710033416748 L 19.73067092895508 8.325380325317383 L 20.64943313598633 4.350559234619141 L 16.67461967468262 5.269340515136719 L 15.48289966583252 1.367666244506836 L 12.5 4.150749206542969 L 9.51710033416748 1.367666244506836 M 9.150629997253418 0 L 12.5 3.125 L 15.84937000274658 0 L 17.1875 4.381010055541992 L 21.65063095092773 3.349359512329102 L 20.61898994445801 7.8125 L 25 9.150629997253418 L 21.875 12.5 L 25 15.84936046600342 L 20.61898994445801 17.1875 L 21.65063095092773 21.6506404876709 L 17.1875 20.61898994445801 L 15.84937000274658 25 L 12.5 21.875 L 9.150639533996582 25 L 7.8125 20.61898994445801 L 3.349369049072266 21.6506404876709 L 4.381010055541992 17.1875 L 0 15.84937000274658 L 3.125 12.5 L 0 9.150639533996582 L 4.381010055541992 7.8125 L 3.349359512329102 3.349369049072266 L 7.8125 4.381010055541992 L 9.150629997253418 0 Z" stroke="none" fill="#d68a27"/>
    </g>
    <g id="hand" transform="translate(0 -0.497)">
      <circle id="楕円形_3" data-name="楕円形 3" cx="3" cy="3" r="3" transform="translate(81 81)" fill="#fff"/>
      <path id="パス_8" data-name="パス 8" d="M.948-.122c.595.157.663.391.995,1.018L4.6,5.436,2.847,6.37C2.293,6.37.084,1.71,0,.987S.353-.279.948-.122Z" transform="matrix(0.995, 0.105, -0.105, 0.995, 82.676, 76.781)" fill="#fff"/>
      <path id="パス_9" data-name="パス 9" d="M.948-.122c.595.157.663.391.995,1.018L5.156,6.812,3.991,8.2C3.438,8.2.084,1.71,0,.987S.353-.279.948-.122Z" transform="translate(76.411 77.745) rotate(-34)" fill="#fff"/>
      <path id="パス_11" data-name="パス 11" d="M.948-.122c.595.157.663.391.995,1.018L4.617,5.683,2.847,6.37C2.293,6.37.084,1.71,0,.987S.353-.279.948-.122Z" transform="translate(78.104 80.582) rotate(-40)" fill="#fff"/>
      <path id="パス_13" data-name="パス 13" d="M.948-.122c.595.157.663.391.995,1.018L4.617,5.683,2.847,6.37C2.293,6.37.084,1.71,0,.987S.353-.279.948-.122Z" transform="translate(77.882 82.113) rotate(-40)" fill="#fff"/>
      <path id="パス_14" data-name="パス 14" d="M.948-.122c.595.157.663.391.995,1.018L4.617,5.683l-2.264.472C1.8,6.155.084,1.71,0,.987S.353-.279.948-.122Z" transform="translate(77.442 83.582) rotate(-40)" fill="#fff"/>
    </g>
  </g>
</svg>
