<svg xmlns="http://www.w3.org/2000/svg" width="32" height="32" viewBox="0 0 32 32">
  <g id="disguise" transform="translate(-66 -65)">
    <rect id="長方形_2" data-name="長方形 2" width="32" height="32" transform="translate(66 65)" fill="none"/>
    <path id="パス_7" data-name="パス 7" d="M15.849,0l1.338,4.381,4.463-1.032L20.619,7.813,25,9.151,21.875,12.5,25,15.849l-4.381,1.338,1.032,4.463-4.463-1.032L15.849,25,12.5,21.875,9.151,25,7.813,20.619,3.349,21.651l1.032-4.463L0,15.849,3.125,12.5,0,9.151,4.381,7.813,3.349,3.349,7.812,4.381,9.151,0,12.5,3.125Z" transform="matrix(0.978, 0.208, -0.208, 0.978, 72.372, 66.174)" fill="#b53e83"/>
    <g id="グループ_19" data-name="グループ 19">
      <path id="パス_21" data-name="パス 21" d="M4.571,0C7.1,0,9.054.712,8.763,2S7.1,4,4.571,4,0,3.1,0,2,2.047,0,4.571,0Z" transform="translate(77.512 75.7)" fill="#fff"/>
      <ellipse id="楕円形_8" data-name="楕円形 8" cx="1.5" cy="1" rx="1.5" ry="1" transform="translate(80.789 86)" fill="#fff"/>
      <path id="パス_20" data-name="パス 20" d="M6.857,0c3.979,0,6.118.994,5.832,2.438S10.836,4.876,6.857,4.876.492,3.762.8,2.438,2.877,0,6.857,0Z" transform="translate(74.925 78.302)" fill="#fff"/>
      <path id="パス_22" data-name="パス 22" d="M2.135.376C3.349.376,4.4.6,4.4,1.5S3.578,2.709,2.364,2.709.086,2.482,0,1.5.921.376,2.135.376Z" transform="translate(83.397 87.103) rotate(180)" fill="#fff"/>
      <path id="パス_23" data-name="パス 23" d="M3.239,0C5.027,0,6.858.834,6.79,2.114S5.027,3,3.239,3,0,2.328,0,1.5,1.45,0,3.239,0Z" transform="translate(77.512 82)" fill="#fff"/>
    </g>
  </g>
</svg>
