<svg xmlns="http://www.w3.org/2000/svg" width="32" height="32" viewBox="0 0 32 32">
  <g id="card_list" transform="translate(-66 -65)">
    <rect id="長方形_2" data-name="長方形 2" width="32" height="32" transform="translate(66 65)" fill="none"/>
    <path id="パス_7" data-name="パス 7" d="M15.849,0l1.338,4.381,4.463-1.032L20.619,7.813,25,9.151,21.875,12.5,25,15.849l-4.381,1.338,1.032,4.463-4.463-1.032L15.849,25,12.5,21.875,9.151,25,7.813,20.619,3.349,21.651l1.032-4.463L0,15.849,3.125,12.5,0,9.151,4.381,7.813,3.349,3.349,7.812,4.381,9.151,0,12.5,3.125Z" transform="matrix(0.978, 0.208, -0.208, 0.978, 72.372, 66.174)" fill="#c80019"/>
    <circle id="楕円形_3" data-name="楕円形 3" cx="1.5" cy="1.5" r="1.5" transform="translate(79 86)" fill="#fff"/>
    <circle id="楕円形_4" data-name="楕円形 4" cx="0.75" cy="0.75" r="0.75" transform="translate(80.5 84)" fill="#fff"/>
    <path id="パス_15" data-name="パス 15" d="M1.666.006A1.544,1.544,0,0,1,3.124,1.933C2.979,3.267-.75,11.792-1.125,12.167s-.49-.52-.49-.52h-.894l2.092-10.3A1.853,1.853,0,0,1,1.666.006Z" transform="translate(83 73)" fill="#fff"/>
  </g>
</svg>
